<svg xmlns="http://www.w3.org/2000/svg" version="1.1" xmlns:xlink="http://www.w3.org/1999/xlink" xmlns:svgjs="http://svgjs.dev/svgjs" width="100%" height="100%" viewBox="0 0 1000 600"><rect width="1000" height="600" x="0" y="0" fill="#262223"/><g><circle r="166.66666666666666" cx="353.0476938883463" cy="375.2699237883861" fill="#f8dd50" transform="matrix(0.6706690677143251,0,0,0.670669067714325,0,48.318065449924035)"/><path d="M276.6499134327903 414.3480899547596L268.20301925777216 445.94127777662476L230.1168451661422 435.5404756963532L236.82025228724203 410.440274144253L236.82025228724203 344.4282470683103L225.78818765296563 341.39217478476286L234.2350818279838 309.79898696289774L269.49560448740124 319.538466367545L269.49560448740124 319.74888721888004L269.49560448740124 332.52443890707474L275.7781699058312 309.79898696289774L321.01865294285017 322.1236368268033L324.47556692906755 309.79898696289774L374.04470747926314 323.4462821780517L366.8903985338741 349.41822725711114L366.8903985338741 412.39418204950636L374.04470747926314 414.3480899547596L365.597813304245 445.94127777662476L331.6298758744566 436.62264007464745L334.21504633371484 427.3340624942893L334.21504633371484 346.3821549735637L320.146909415891 342.474339163057L318.1930015106377 349.41822725711114L318.1930015106377 412.39418204950636L325.3473104560267 414.3480899547596L316.9004162810086 445.94127777662476L282.93247885122025 436.62264007464745L285.5176493104784 427.3340624942893L285.5176493104784 346.3821549735637L269.49560448740124 342.05349746038706L269.49560448740124 412.39418204950636L276.6499134327903 414.3480899547596ZM443.5136485414232 450.26993528980125L443.5136485414232 450.26993528980125L380.537693749028 433.16572608842995L388.5336860997569 401.9933799692348L393.9445079912276 403.52644617181824L393.9445079912276 340.0995895551337L419.7060322189521 340.0995895551337L389.4054296267161 331.86311623145053L398.0627446530692 300.2699284095854L480.3072374034241 322.7849595024275L471.8603432284059 354.37814732429257L426.6499203130062 342.05349746038706L426.6499203130062 409.14768891462387L413.4234668005222 409.14768891462387L440.928478082165 417.1436812653529L469.0647519178127 409.3581097659589L477.7220669441658 440.95129758782394L443.5136485414232 450.26993528980125L443.5136485414232 450.26993528980125Z " fill="#000000" transform="matrix(0.6706690677143251,0,0,0.670669067714325,0,48.318065449924035)"/><path d="M641.8254038714299 387.2447156233679L635.3853730134708 411.3318061276913L606.347938504453 403.40208841646773L611.4587103241145 384.26534191683885L611.4587103241145 333.9368445357787L603.0477091679901 331.6221003483984L609.487740025949 307.53500984407503L636.3708581625535 314.96052585111664L636.3708581625535 315.1209536660836L636.3708581625535 324.86121386050553L641.1607743522811 307.53500984407503L675.6527545701751 316.93149614928205L678.2883543874893 307.53500984407503L716.0805639418463 317.93989955764573L710.6260182329702 337.74127557642345L710.6260182329702 385.75502877010337L716.0805639418463 387.2447156233679L709.6405330838875 411.3318061276913L683.7429000963657 404.2271457505835L685.7138703945311 397.14540363275677L685.7138703945311 335.4265313890432L674.9881250510264 332.44715768251416L673.498438197762 337.74127557642345L673.498438197762 385.75502877010337L678.9529839066381 387.2447156233679L672.5129530486793 411.3318061276913L646.6153200611574 404.2271457505835L648.5862903593227 397.14540363275677L648.5862903593227 335.4265313890432L636.3708581625535 332.12630205258023L636.3708581625535 385.75502877010337L641.8254038714299 387.2447156233679ZM761.9629190223941 393.8451742962938L757.3334306476333 412.15686346180706L721.030907946541 402.2561754524182L726.4854536554171 380.9651125803759L726.4854536554171 354.5632778886722L721.030907946541 353.0735910354077L727.4709388044998 328.98650053108423L756.5083733135177 336.9162182423077L751.3976014938562 356.0529647419367L751.3976014938562 384.76954362102066L761.9629190223941 387.40514343833485L761.9629190223941 354.5632778886722L756.5083733135177 353.0735910354077L762.9484041714766 328.98650053108423L791.9858386804945 336.9162182423077L786.8750668608332 356.0529647419367L786.8750668608332 425.8390642525597L786.8750668608332 425.8390642525597L780.5954638178412 450.269928646098L729.1210534727313 436.2439539661304L735.2173104414753 412.3172912767739L761.9629190223941 419.23860557963377L761.9629190223941 393.8451742962938ZM844.9499358788687 414.6320354641543L844.9499358788687 414.6320354641543L796.9361826851889 401.5915459332694L803.0324396539331 377.8253110588799L807.1577263245117 378.9941422822105L807.1577263245117 330.6366151993157L826.7986745283224 330.6366151993157L803.6970691730819 324.3570121563237L810.2975278460078 300.26992165200033L873.0018852388039 317.43569785346386L866.561854380845 341.5227883577873L832.0927924222319 332.12630205258023L832.0927924222319 383.27985676775614L822.008758338595 383.27985676775614L842.9789655807035 389.37611373650014L864.4304562677125 383.4402845827231L871.0309149406387 407.52737508704644L844.9499358788687 414.6320354641543L844.9499358788687 414.6320354641543ZM911.4587243123099 404.38757356555044L909.4648357548635 411.9964356468401L877.9522292434983 403.40208841646773L879.7627717266969 396.64120192857484L879.7627717266969 346.8169062516966L892.8032612575817 346.8169062516966L897.7536052622761 327.33638586285275L946.7757618643197 340.21644757877067L940.4961588213275 364.4639658980611L937.1959294848648 363.63890856394534L937.1959294848648 385.5946009551364L945.7673584559559 387.88642688323563L939.350245857278 411.9964356468401L911.4587243123099 404.38757356555044ZM904.6978378244169 354.8841335186061L904.6978378244169 384.76954362102066L912.2837816464255 386.9009417341529L912.2837816464255 386.74051391918607L912.2837816464255 356.87802207605245L904.6978378244169 354.8841335186061ZM989.6787432383383 387.40514343833485L983.2387123803792 411.4922339426582L954.2012778713613 403.5625162314347L959.3120496910228 384.4257697318058L959.3120496910228 341.68321617275427L951.7261058690142 341.0415049128864L954.0179317971133 316.28978488941425L959.3120496910228 316.7710683343151L959.3120496910228 306.87038032492626L984.2241975294619 306.87038032492626L984.2241975294619 319.08581252169535L992.3143430556522 319.9108698558111L989.999598868272 344.6625898792833L984.2241975294619 344.1583881751015L984.2241975294619 382.77565506357433L972.6733948518415 382.77565506357433L989.6787432383383 387.40514343833485ZM1051.5580432970187 392.01171355381433L1045.1180124390596 416.1217223174188L997.2646870603467 403.0812327865339L1000.0607146926279 392.51591525799626L1000.0607146926279 346.8169062516966L1014.4304632618102 346.8169062516966L1011.4510895552812 344.3417342493494L1027.448034533414 325.18206949043946L1058.1585019699446 351.2630485522092L1042.1386387325306 370.23936723687126L1044.7742385498448 379.8191996163262L1025.7979198651826 385.0903992509546L1051.5580432970187 392.01171355381433ZM1034.713122725489 364.14311026812715L1024.972862531067 355.89253692696974L1024.972862531067 366.77871008544133L1034.713122725489 364.14311026812715ZM1098.5863113416158 387.40514343833485L1092.1462804836567 411.4922339426582L1063.1088459746388 403.5625162314347L1068.2196177943003 384.4257697318058L1068.2196177943003 357.0384498910194L1063.1088459746388 355.70919085272186L1069.525958573317 331.6221003483984L1093.7963951518882 338.22255902132434L1095.6069376350868 331.6221003483984L1115.4083136538643 337.0766460572747L1108.9682827959055 361.1637365615981L1093.1317656327394 356.87802207605245L1093.1317656327394 385.91545658507033L1098.5863113416158 387.40514343833485ZM1155.0110656914198 387.40514343833485L1148.571034833461 411.4922339426582L1119.5336003244431 403.5625162314347L1124.6443721441044 384.4257697318058L1124.6443721441044 357.0384498910194L1119.5336003244431 355.70919085272186L1125.9736311824022 331.6221003483984L1155.0110656914198 339.5518180596219L1149.5565199825435 360.01782359754844L1149.5565199825435 385.91545658507033L1155.0110656914198 387.40514343833485ZM1151.7108363549569 311.4998686996868L1146.9209201652295 328.66564490115036L1122.5129740309721 321.8818401539765L1127.2799719614186 304.7389822117939L1151.7108363549569 311.4998686996868ZM1195.4388750630912 387.40514343833485L1188.9988442051322 411.4922339426582L1159.9614096961145 403.5625162314347L1165.0721815157758 384.4257697318058L1165.0721815157758 357.0384498910194L1159.9614096961145 355.70919085272186L1166.4014405540734 331.6221003483984L1192.1386457266283 338.72676072550615L1194.7742455439425 328.98650053108423L1230.916340430068 338.8871885404731L1225.4617947211918 359.35319407839967L1225.4617947211918 385.91545658507033L1230.916340430068 387.40514343833485L1224.4763095721091 411.4922339426582L1195.4388750630912 403.5625162314347L1200.5496468827525 384.4257697318058L1200.5496468827525 356.37382037187064L1191.6344440224464 353.8986483695234L1189.9843293542149 360.01782359754844L1189.9843293542149 385.91545658507033L1195.4388750630912 387.40514343833485ZM1241.4816579586056 382.29437161867344L1237.677226917961 382.29437161867344L1237.677226917961 346.8169062516966L1250.7177164488457 346.8169062516966L1255.6680604535402 327.33638586285275L1304.667298796303 340.21644757877067L1298.4106140125919 364.4639658980611L1295.110384676129 363.63890856394534L1295.110384676129 424.1889495843282L1295.110384676129 424.1889495843282L1288.509926003203 448.29895834793257L1242.6275709226552 435.7397522619486L1249.2280295955811 411.4922339426582L1270.1982368376896 417.2676352814685L1270.1982368376896 401.43111811830244L1267.3792909461274 411.9964356468401L1235.8666844347624 403.40208841646773L1241.4816579586056 382.29437161867344ZM1262.5893747564 354.8841335186061L1262.5893747564 382.29437161867344L1253.192888451193 382.29437161867344L1270.1982368376896 386.9009417341529L1270.1982368376896 356.87802207605245L1262.5893747564 354.8841335186061Z " fill="#f8dd50" transform="matrix(0.6706690677143251,0,0,0.670669067714325,0,48.318065449924035)"/></g></svg>